# MagicaVoxel @ Ephtracy

# group
o 

# material
mtllib Archer.mtl
usemtl palette

# normals
vn -1 0 0
vn 1 0 0
vn 0 0 1
vn 0 0 -1
vn 0 -1 0
vn 0 1 0

# texcoords
vt 0.0644531 0.5
vt 0.0917969 0.5
vt 0.232422 0.5
vt 0.396484 0.5
vt 0.537109 0.5
vt 0.634766 0.5
vt 0.853516 0.5
vt 0.912109 0.5
vt 0.943359 0.5
vt 0.947266 0.5
vt 0.951172 0.5
vt 0.982422 0.5
vt 0.994141 0.5

# verts
v 0.4 1.5 -1
v 0.4 1.5 -1.1
v 0.4 1.6 -1
v 0.4 1.6 -1.1
v 0.7 1.6 -0.8
v 0.7 1.6 -0.9
v 0.7 1.6 -1.2
v 0.7 1.6 -1.3
v 0.7 1.7 -0.9
v 0.7 1.7 -1.2
v 0.7 1.7 -1.3
v 0.7 2.1 -0.8
v 0.7 2.1 -0.9
v 0.7 2.2 -0.9
v 0.7 2.2 -1
v 0.7 2.2 -1.2
v 0.7 2.2 -1.3
v 0.7 2.3 -1
v 0.7 2.3 -1.2
v 0.8 1 -1
v 0.8 1 -1.1
v 0.8 1.1 -1
v 0.8 1.1 -1.1
v 0.8 1.2 -0.9
v 0.8 1.2 -1
v 0.8 1.2 -1.1
v 0.8 1.2 -1.2
v 0.8 1.3 -0.9
v 0.8 1.3 -1.2
v 0.8 1.4 -1.2
v 0.8 1.4 -1.3
v 0.8 1.5 -0.9
v 0.8 1.5 -1
v 0.8 1.5 -1.1
v 0.8 1.5 -1.2
v 0.8 1.5 -1.3
v 0.8 1.6 -0.9
v 0.8 1.6 -1
v 0.8 1.6 -1.1
v 0.8 1.6 -1.2
v 0.8 1.6 -1.3
v 0.8 1.7 -0.9
v 0.8 1.7 -1
v 0.8 1.7 -1.1
v 0.8 1.7 -1.2
v 0.8 1.7 -1.3
v 0.8 1.7 -1.4
v 0.8 2.1 -0.8
v 0.8 2.1 -0.9
v 0.8 2.2 -0.8
v 0.8 2.2 -0.9
v 0.8 2.2 -1
v 0.8 2.2 -1.2
v 0.8 2.2 -1.3
v 0.8 2.2 -1.4
v 0.8 2.3 -0.9
v 0.8 2.3 -1
v 0.8 2.3 -1.2
v 0.8 2.3 -1.3
v 0.9 1.3 -1.2
v 0.9 1.3 -1.3
v 0.9 1.4 -1.2
v 0.9 1.4 -1.3
v 0.9 1.5 -0.8
v 0.9 1.5 -0.9
v 0.9 1.6 -0.8
v 0.9 1.6 -0.9
v 0.9 1.9 -0.8
v 0.9 1.9 -0.9
v 0.9 2 -0.8
v 0.9 2 -0.9
v 0.9 2 -1.4
v 0.9 2 -1.5
v 0.9 2.2 -0.8
v 0.9 2.2 -0.9
v 0.9 2.2 -1.3
v 0.9 2.2 -1.4
v 0.9 2.2 -1.5
v 0.9 2.3 -0.8
v 0.9 2.3 -0.9
v 0.9 2.3 -1.1
v 0.9 2.3 -1.3
v 0.9 2.3 -1.4
v 0.9 2.4 -1.1
v 0.9 2.4 -1.3
v 1.1 1 -1
v 1.1 1 -1.1
v 1.1 1.1 -1
v 1.1 1.1 -1.1
v 1.1 1.2 -1
v 1.1 1.2 -1.1
v 1.1 1.6 -0.8
v 1.1 1.6 -1
v 1.1 1.7 -0.8
v 1.1 1.7 -0.9
v 1.1 1.7 -1
v 1.2 1.7 -0.8
v 1.2 1.7 -0.9
v 1.2 1.8 -0.9
v 1.2 1.9 -0.9
v 1.2 2 -0.8
v 1.2 2 -0.9
v 0.8 1.7 -0.8
v 0.8 1.7 -0.9
v 0.8 1.8 -0.9
v 0.8 1.9 -0.9
v 0.8 2 -0.8
v 0.8 2 -0.9
v 0.9 1 -1
v 0.9 1 -1.1
v 0.9 1.1 -1
v 0.9 1.1 -1.1
v 0.9 1.2 -1
v 0.9 1.2 -1.1
v 0.9 1.6 -0.8
v 0.9 1.6 -1
v 0.9 1.7 -0.8
v 0.9 1.7 -0.9
v 0.9 1.7 -1
v 1 1.5 -1.2
v 1 1.5 -1.3
v 1 1.6 -1.2
v 1 1.6 -1.3
v 1.1 1.3 -1.2
v 1.1 1.3 -1.3
v 1.1 1.4 -1.2
v 1.1 1.5 -0.8
v 1.1 1.5 -0.9
v 1.1 1.5 -1.2
v 1.1 1.5 -1.3
v 1.1 1.6 -0.8
v 1.1 1.6 -0.9
v 1.1 1.9 -0.8
v 1.1 1.9 -0.9
v 1.1 2 -0.8
v 1.1 2 -0.9
v 1.1 2 -1.4
v 1.1 2 -1.5
v 1.1 2.2 -0.8
v 1.1 2.2 -0.9
v 1.1 2.2 -1.3
v 1.1 2.2 -1.4
v 1.1 2.2 -1.5
v 1.1 2.3 -0.8
v 1.1 2.3 -0.9
v 1.1 2.3 -1.1
v 1.1 2.3 -1.3
v 1.1 2.3 -1.4
v 1.1 2.4 -1.1
v 1.1 2.4 -1.3
v 1.2 1 -1
v 1.2 1 -1.1
v 1.2 1.1 -1
v 1.2 1.1 -1.1
v 1.2 1.2 -0.9
v 1.2 1.2 -1
v 1.2 1.2 -1.1
v 1.2 1.2 -1.2
v 1.2 1.3 -0.9
v 1.2 1.3 -1.2
v 1.2 1.4 -0.9
v 1.2 1.4 -1.2
v 1.2 1.5 -1
v 1.2 1.5 -1.1
v 1.2 1.6 -0.9
v 1.2 1.6 -1
v 1.2 1.6 -1.1
v 1.2 1.6 -1.2
v 1.2 1.6 -1.3
v 1.2 1.7 -0.9
v 1.2 1.7 -1.3
v 1.2 1.7 -1.4
v 1.2 2.1 -0.8
v 1.2 2.1 -0.9
v 1.2 2.2 -0.8
v 1.2 2.2 -0.9
v 1.2 2.2 -1
v 1.2 2.2 -1.2
v 1.2 2.2 -1.3
v 1.2 2.2 -1.4
v 1.2 2.3 -0.9
v 1.2 2.3 -1
v 1.2 2.3 -1.2
v 1.2 2.3 -1.3
v 1.3 1.6 -0.8
v 1.3 1.6 -0.9
v 1.3 1.7 -0.9
v 1.3 1.7 -1.3
v 1.3 2.1 -0.8
v 1.3 2.1 -0.9
v 1.3 2.2 -0.9
v 1.3 2.2 -1
v 1.3 2.2 -1.2
v 1.3 2.2 -1.3
v 1.3 2.3 -1
v 1.3 2.3 -1.2
v 1.6 1.5 -1
v 1.6 1.5 -1.1
v 1.6 1.6 -1
v 1.6 1.6 -1.1
v 0.7 1.6 -0.8
v 0.7 2.1 -0.8
v 0.8 1.7 -0.8
v 0.8 2 -0.8
v 0.8 2.1 -0.8
v 0.8 2.2 -0.8
v 0.9 1.5 -0.8
v 0.9 1.6 -0.8
v 0.9 1.7 -0.8
v 0.9 1.9 -0.8
v 0.9 2 -0.8
v 0.9 2.2 -0.8
v 0.9 2.3 -0.8
v 1.1 1.5 -0.8
v 1.1 1.6 -0.8
v 1.1 1.7 -0.8
v 1.1 1.9 -0.8
v 1.1 2 -0.8
v 1.1 2.2 -0.8
v 1.1 2.3 -0.8
v 1.2 1.7 -0.8
v 1.2 2 -0.8
v 1.2 2.1 -0.8
v 1.2 2.2 -0.8
v 1.3 1.6 -0.8
v 1.3 2.1 -0.8
v 0.7 2.1 -0.9
v 0.7 2.2 -0.9
v 0.8 1.2 -0.9
v 0.8 1.3 -0.9
v 0.8 1.5 -0.9
v 0.8 1.6 -0.9
v 0.8 1.7 -0.9
v 0.8 1.8 -0.9
v 0.8 1.9 -0.9
v 0.8 2 -0.9
v 0.8 2.1 -0.9
v 0.8 2.2 -0.9
v 0.8 2.3 -0.9
v 0.9 1.2 -0.9
v 0.9 1.3 -0.9
v 0.9 1.4 -0.9
v 0.9 1.5 -0.9
v 0.9 1.6 -0.9
v 0.9 1.7 -0.9
v 0.9 1.8 -0.9
v 0.9 1.9 -0.9
v 0.9 2 -0.9
v 0.9 2.2 -0.9
v 0.9 2.3 -0.9
v 1.1 1.2 -0.9
v 1.1 1.3 -0.9
v 1.1 1.4 -0.9
v 1.1 1.5 -0.9
v 1.1 1.6 -0.9
v 1.1 1.7 -0.9
v 1.1 1.8 -0.9
v 1.1 1.9 -0.9
v 1.1 2 -0.9
v 1.1 2.2 -0.9
v 1.1 2.3 -0.9
v 1.2 1.2 -0.9
v 1.2 1.3 -0.9
v 1.2 1.4 -0.9
v 1.2 1.6 -0.9
v 1.2 1.7 -0.9
v 1.2 1.8 -0.9
v 1.2 1.9 -0.9
v 1.2 2 -0.9
v 1.2 2.1 -0.9
v 1.2 2.2 -0.9
v 1.2 2.3 -0.9
v 1.3 2.1 -0.9
v 1.3 2.2 -0.9
v 0.4 1.5 -1
v 0.4 1.6 -1
v 0.5 1.5 -1
v 0.5 1.6 -1
v 0.7 2.2 -1
v 0.7 2.3 -1
v 0.8 1 -1
v 0.8 1.1 -1
v 0.8 1.2 -1
v 0.8 1.5 -1
v 0.8 1.6 -1
v 0.8 2.2 -1
v 0.8 2.3 -1
v 0.9 1 -1
v 0.9 1.1 -1
v 0.9 1.2 -1
v 0.9 1.6 -1
v 0.9 1.7 -1
v 1.1 1 -1
v 1.1 1.1 -1
v 1.1 1.2 -1
v 1.1 1.6 -1
v 1.1 1.7 -1
v 1.2 1 -1
v 1.2 1.1 -1
v 1.2 1.2 -1
v 1.2 1.5 -1
v 1.2 1.6 -1
v 1.2 2.2 -1
v 1.2 2.3 -1
v 1.3 2.2 -1
v 1.3 2.3 -1
v 1.5 1.5 -1
v 1.5 1.6 -1
v 1.6 1.5 -1
v 1.6 1.6 -1
v 0.9 2.3 -1.1
v 0.9 2.4 -1.1
v 1.1 2.3 -1.1
v 1.1 2.4 -1.1
v 0.7 1.6 -1.2
v 0.7 1.7 -1.2
v 0.8 1.6 -1.2
v 0.8 1.7 -1.2
v 0.7 1.6 -0.9
v 0.7 1.7 -0.9
v 0.8 1.6 -0.9
v 0.8 1.7 -0.9
v 1.2 1.6 -0.9
v 1.2 1.7 -0.9
v 1.3 1.6 -0.9
v 1.3 1.7 -0.9
v 0.4 1.5 -1.1
v 0.4 1.6 -1.1
v 0.5 1.5 -1.1
v 0.5 1.6 -1.1
v 0.8 1 -1.1
v 0.8 1.1 -1.1
v 0.8 1.2 -1.1
v 0.8 1.5 -1.1
v 0.8 1.6 -1.1
v 0.9 1 -1.1
v 0.9 1.1 -1.1
v 0.9 1.2 -1.1
v 1.1 1 -1.1
v 1.1 1.1 -1.1
v 1.1 1.2 -1.1
v 1.2 1 -1.1
v 1.2 1.1 -1.1
v 1.2 1.2 -1.1
v 1.2 1.5 -1.1
v 1.2 1.6 -1.1
v 1.5 1.5 -1.1
v 1.5 1.6 -1.1
v 1.6 1.5 -1.1
v 1.6 1.6 -1.1
v 0.7 2.2 -1.2
v 0.7 2.3 -1.2
v 0.8 1.2 -1.2
v 0.8 1.3 -1.2
v 0.8 1.4 -1.2
v 0.8 2.2 -1.2
v 0.8 2.3 -1.2
v 0.9 1.3 -1.2
v 0.9 1.4 -1.2
v 1 1.5 -1.2
v 1 1.6 -1.2
v 1.1 1.3 -1.2
v 1.1 1.4 -1.2
v 1.1 1.5 -1.2
v 1.2 1.2 -1.2
v 1.2 1.3 -1.2
v 1.2 1.4 -1.2
v 1.2 1.6 -1.2
v 1.2 2.2 -1.2
v 1.2 2.3 -1.2
v 1.3 2.2 -1.2
v 1.3 2.3 -1.2
v 0.7 1.6 -1.3
v 0.7 1.7 -1.3
v 0.7 2.2 -1.3
v 0.8 1.4 -1.3
v 0.8 1.5 -1.3
v 0.8 1.6 -1.3
v 0.8 1.7 -1.3
v 0.8 2.2 -1.3
v 0.8 2.3 -1.3
v 0.9 1.3 -1.3
v 0.9 1.4 -1.3
v 0.9 1.5 -1.3
v 0.9 1.6 -1.3
v 0.9 2.2 -1.3
v 0.9 2.3 -1.3
v 0.9 2.4 -1.3
v 1 1.5 -1.3
v 1 1.6 -1.3
v 1.1 1.3 -1.3
v 1.1 1.5 -1.3
v 1.1 2.2 -1.3
v 1.1 2.3 -1.3
v 1.1 2.4 -1.3
v 1.2 1.6 -1.3
v 1.2 1.7 -1.3
v 1.2 2.2 -1.3
v 1.2 2.3 -1.3
v 1.3 1.7 -1.3
v 1.3 2.2 -1.3
v 0.8 1.7 -1.4
v 0.8 2.2 -1.4
v 0.9 2 -1.4
v 0.9 2.2 -1.4
v 0.9 2.3 -1.4
v 1.1 2 -1.4
v 1.1 2.2 -1.4
v 1.1 2.3 -1.4
v 1.2 1.7 -1.4
v 1.2 2.2 -1.4
v 0.9 2 -1.5
v 0.9 2.2 -1.5
v 1.1 2 -1.5
v 1.1 2.2 -1.5
v 0.8 1 -1
v 0.9 1 -1
v 1.1 1 -1
v 1.2 1 -1
v 0.8 1 -1.1
v 0.9 1 -1.1
v 1.1 1 -1.1
v 1.2 1 -1.1
v 0.8 1.2 -0.9
v 0.9 1.2 -0.9
v 1.1 1.2 -0.9
v 1.2 1.2 -0.9
v 0.8 1.2 -1
v 0.9 1.2 -1
v 1.1 1.2 -1
v 1.2 1.2 -1
v 0.8 1.2 -1.1
v 0.9 1.2 -1.1
v 1.1 1.2 -1.1
v 1.2 1.2 -1.1
v 0.8 1.2 -1.2
v 1.2 1.2 -1.2
v 0.9 1.3 -1.2
v 1.1 1.3 -1.2
v 0.9 1.3 -1.3
v 1.1 1.3 -1.3
v 0.8 1.4 -1.2
v 0.9 1.4 -1.2
v 0.8 1.4 -1.3
v 0.9 1.4 -1.3
v 0.9 1.5 -0.8
v 1.1 1.5 -0.8
v 0.9 1.5 -0.9
v 1.1 1.5 -0.9
v 0.4 1.5 -1
v 0.5 1.5 -1
v 0.8 1.5 -1
v 1.2 1.5 -1
v 1.5 1.5 -1
v 1.6 1.5 -1
v 0.4 1.5 -1.1
v 0.5 1.5 -1.1
v 0.8 1.5 -1.1
v 1.2 1.5 -1.1
v 1.5 1.5 -1.1
v 1.6 1.5 -1.1
v 0.7 1.6 -0.8
v 0.9 1.6 -0.8
v 1.1 1.6 -0.8
v 1.3 1.6 -0.8
v 0.7 1.6 -0.9
v 0.8 1.6 -0.9
v 0.9 1.6 -0.9
v 1.1 1.6 -0.9
v 1.2 1.6 -0.9
v 1.3 1.6 -0.9
v 0.7 1.6 -1.2
v 0.8 1.6 -1.2
v 1 1.6 -1.2
v 1.2 1.6 -1.2
v 0.7 1.6 -1.3
v 0.8 1.6 -1.3
v 1 1.6 -1.3
v 1.2 1.6 -1.3
v 0.7 1.7 -0.9
v 0.8 1.7 -0.9
v 0.9 1.7 -0.9
v 1.1 1.7 -0.9
v 1.2 1.7 -0.9
v 1.3 1.7 -0.9
v 0.8 1.7 -1
v 0.9 1.7 -1
v 1.1 1.7 -1
v 0.8 1.7 -1.1
v 0.7 1.7 -1.2
v 0.8 1.7 -1.2
v 0.8 1.7 -1.3
v 1.2 1.7 -1.3
v 1.3 1.7 -1.3
v 0.8 1.7 -1.4
v 1.2 1.7 -1.4
v 0.9 1.9 -0.8
v 1.1 1.9 -0.8
v 0.9 1.9 -0.9
v 1.1 1.9 -0.9
v 0.8 2 -0.8
v 0.9 2 -0.8
v 1.1 2 -0.8
v 1.2 2 -0.8
v 0.8 2 -0.9
v 0.9 2 -0.9
v 1.1 2 -0.9
v 1.2 2 -0.9
v 0.9 2 -1.4
v 1.1 2 -1.4
v 0.9 2 -1.5
v 1.1 2 -1.5
v 1 1.5 -1.2
v 1.1 1.5 -1.2
v 1 1.5 -1.3
v 1.1 1.5 -1.3
v 0.9 1.6 -0.8
v 1.1 1.6 -0.8
v 0.4 1.6 -1
v 0.5 1.6 -1
v 0.8 1.6 -1
v 0.9 1.6 -1
v 1.1 1.6 -1
v 1.2 1.6 -1
v 1.5 1.6 -1
v 1.6 1.6 -1
v 0.4 1.6 -1.1
v 0.5 1.6 -1.1
v 0.8 1.6 -1.1
v 1.2 1.6 -1.1
v 1.5 1.6 -1.1
v 1.6 1.6 -1.1
v 0.8 1.7 -0.8
v 0.9 1.7 -0.8
v 1.1 1.7 -0.8
v 1.2 1.7 -0.8
v 0.8 1.7 -0.9
v 0.9 1.7 -0.9
v 1.1 1.7 -0.9
v 1.2 1.7 -0.9
v 0.7 2.1 -0.8
v 0.8 2.1 -0.8
v 1.2 2.1 -0.8
v 1.3 2.1 -0.8
v 0.7 2.1 -0.9
v 0.8 2.1 -0.9
v 1.2 2.1 -0.9
v 1.3 2.1 -0.9
v 0.8 2.2 -0.8
v 0.9 2.2 -0.8
v 1.1 2.2 -0.8
v 1.2 2.2 -0.8
v 0.7 2.2 -0.9
v 0.8 2.2 -0.9
v 0.9 2.2 -0.9
v 1.1 2.2 -0.9
v 1.2 2.2 -0.9
v 1.3 2.2 -0.9
v 0.7 2.2 -1
v 0.8 2.2 -1
v 1.2 2.2 -1
v 1.3 2.2 -1
v 0.7 2.2 -1.2
v 0.8 2.2 -1.2
v 1.2 2.2 -1.2
v 1.3 2.2 -1.2
v 0.7 2.2 -1.3
v 0.8 2.2 -1.3
v 0.9 2.2 -1.3
v 1.1 2.2 -1.3
v 1.2 2.2 -1.3
v 1.3 2.2 -1.3
v 0.8 2.2 -1.4
v 0.9 2.2 -1.4
v 1.1 2.2 -1.4
v 1.2 2.2 -1.4
v 0.9 2.2 -1.5
v 1.1 2.2 -1.5
v 0.9 2.3 -0.8
v 1.1 2.3 -0.8
v 0.8 2.3 -0.9
v 0.9 2.3 -0.9
v 1.1 2.3 -0.9
v 1.2 2.3 -0.9
v 0.7 2.3 -1
v 0.8 2.3 -1
v 1.2 2.3 -1
v 1.3 2.3 -1
v 0.9 2.3 -1.1
v 1.1 2.3 -1.1
v 0.7 2.3 -1.2
v 0.8 2.3 -1.2
v 1.2 2.3 -1.2
v 1.3 2.3 -1.2
v 0.8 2.3 -1.3
v 0.9 2.3 -1.3
v 1.1 2.3 -1.3
v 1.2 2.3 -1.3
v 0.9 2.3 -1.4
v 1.1 2.3 -1.4
v 0.9 2.4 -1.1
v 1.1 2.4 -1.1
v 0.9 2.4 -1.3
v 1.1 2.4 -1.3

# faces
f 3/1/1 2/1/1 1/1/1
f 4/1/1 2/1/1 3/1/1
f 9/8/1 6/8/1 5/8/1
f 10/7/1 8/7/1 7/7/1
f 11/7/1 8/7/1 10/7/1
f 12/8/1 9/8/1 5/8/1
f 12/8/1 10/8/1 9/8/1
f 12/8/1 11/8/1 10/8/1
f 13/8/1 11/8/1 12/8/1
f 14/8/1 11/8/1 13/8/1
f 15/8/1 11/8/1 14/8/1
f 16/8/1 11/8/1 15/8/1
f 17/8/1 11/8/1 16/8/1
f 18/8/1 16/8/1 15/8/1
f 19/8/1 16/8/1 18/8/1
f 22/5/1 21/5/1 20/5/1
f 23/5/1 21/5/1 22/5/1
f 25/13/1 23/13/1 22/13/1
f 26/13/1 23/13/1 25/13/1
f 28/4/1 26/4/1 25/4/1
f 28/4/1 27/4/1 26/4/1
f 28/4/1 25/4/1 24/4/1
f 29/4/1 27/4/1 28/4/1
f 30/8/1 29/8/1 28/8/1
f 32/8/1 30/8/1 28/8/1
f 33/8/1 30/8/1 32/8/1
f 34/8/1 30/8/1 33/8/1
f 35/2/1 31/2/1 30/2/1
f 35/8/1 30/8/1 34/8/1
f 36/2/1 31/2/1 35/2/1
f 37/2/1 33/2/1 32/2/1
f 38/2/1 33/2/1 37/2/1
f 39/2/1 35/2/1 34/2/1
f 40/3/1 36/3/1 35/3/1
f 40/2/1 35/2/1 39/2/1
f 41/3/1 36/3/1 40/3/1
f 42/8/1 38/8/1 37/8/1
f 43/2/1 39/2/1 38/2/1
f 43/8/1 38/8/1 42/8/1
f 44/8/1 40/8/1 39/8/1
f 44/2/1 39/2/1 43/2/1
f 45/8/1 40/8/1 44/8/1
f 50/8/1 49/8/1 48/8/1
f 51/8/1 49/8/1 50/8/1
f 54/8/1 47/8/1 46/8/1
f 55/8/1 47/8/1 54/8/1
f 56/8/1 52/8/1 51/8/1
f 57/8/1 52/8/1 56/8/1
f 58/8/1 54/8/1 53/8/1
f 59/8/1 54/8/1 58/8/1
f 62/2/1 61/2/1 60/2/1
f 63/2/1 61/2/1 62/2/1
f 66/8/1 65/8/1 64/8/1
f 67/8/1 65/8/1 66/8/1
f 70/8/1 69/8/1 68/8/1
f 71/8/1 69/8/1 70/8/1
f 77/8/1 73/8/1 72/8/1
f 78/8/1 73/8/1 77/8/1
f 79/8/1 75/8/1 74/8/1
f 80/8/1 75/8/1 79/8/1
f 82/8/1 77/8/1 76/8/1
f 83/8/1 77/8/1 82/8/1
f 84/8/1 82/8/1 81/8/1
f 85/8/1 82/8/1 84/8/1
f 88/5/1 87/5/1 86/5/1
f 89/5/1 87/5/1 88/5/1
f 90/13/1 89/13/1 88/13/1
f 91/13/1 89/13/1 90/13/1
f 94/8/1 93/8/1 92/8/1
f 95/8/1 93/8/1 94/8/1
f 96/8/1 93/8/1 95/8/1
f 99/8/1 98/8/1 97/8/1
f 100/8/1 99/8/1 97/8/1
f 101/8/1 100/8/1 97/8/1
f 102/8/1 100/8/1 101/8/1
f 103/8/2 104/8/2 105/8/2
f 103/8/2 105/8/2 106/8/2
f 103/8/2 106/8/2 107/8/2
f 107/8/2 106/8/2 108/8/2
f 109/5/2 110/5/2 111/5/2
f 111/5/2 110/5/2 112/5/2
f 111/13/2 112/13/2 113/13/2
f 113/13/2 112/13/2 114/13/2
f 115/8/2 116/8/2 117/8/2
f 117/8/2 116/8/2 118/8/2
f 118/8/2 116/8/2 119/8/2
f 120/2/2 121/2/2 122/2/2
f 122/2/2 121/2/2 123/2/2
f 124/2/2 125/2/2 126/2/2
f 126/2/2 125/2/2 129/2/2
f 129/2/2 125/2/2 130/2/2
f 127/8/2 128/8/2 131/8/2
f 131/8/2 128/8/2 132/8/2
f 133/8/2 134/8/2 135/8/2
f 135/8/2 134/8/2 136/8/2
f 137/8/2 138/8/2 142/8/2
f 142/8/2 138/8/2 143/8/2
f 139/8/2 140/8/2 144/8/2
f 144/8/2 140/8/2 145/8/2
f 141/8/2 142/8/2 147/8/2
f 147/8/2 142/8/2 148/8/2
f 146/8/2 147/8/2 149/8/2
f 149/8/2 147/8/2 150/8/2
f 151/5/2 152/5/2 153/5/2
f 153/5/2 152/5/2 154/5/2
f 153/13/2 154/13/2 156/13/2
f 156/13/2 154/13/2 157/13/2
f 156/4/2 157/4/2 159/4/2
f 157/4/2 158/4/2 159/4/2
f 155/4/2 156/4/2 159/4/2
f 159/4/2 158/4/2 160/4/2
f 159/2/2 160/2/2 161/2/2
f 161/2/2 160/2/2 162/2/2
f 161/8/2 162/8/2 163/8/2
f 163/8/2 162/8/2 164/8/2
f 161/8/2 163/8/2 165/8/2
f 165/8/2 163/8/2 166/8/2
f 164/8/2 162/8/2 167/8/2
f 167/8/2 162/8/2 168/8/2
f 167/8/2 168/8/2 170/8/2
f 168/8/2 169/8/2 170/8/2
f 166/8/2 167/8/2 170/8/2
f 165/8/2 166/8/2 170/8/2
f 170/8/2 169/8/2 171/8/2
f 173/8/2 174/8/2 175/8/2
f 175/8/2 174/8/2 176/8/2
f 171/8/2 172/8/2 179/8/2
f 179/8/2 172/8/2 180/8/2
f 176/8/2 177/8/2 181/8/2
f 181/8/2 177/8/2 182/8/2
f 178/8/2 179/8/2 183/8/2
f 183/8/2 179/8/2 184/8/2
f 185/8/2 186/8/2 187/8/2
f 185/8/2 187/8/2 189/8/2
f 187/8/2 188/8/2 189/8/2
f 189/8/2 188/8/2 190/8/2
f 190/8/2 188/8/2 191/8/2
f 191/8/2 188/8/2 192/8/2
f 192/8/2 188/8/2 193/8/2
f 193/8/2 188/8/2 194/8/2
f 192/8/2 193/8/2 195/8/2
f 195/8/2 193/8/2 196/8/2
f 197/1/2 198/1/2 199/1/2
f 199/1/2 198/1/2 200/1/2
f 203/8/3 202/8/3 201/8/3
f 204/8/3 202/8/3 203/8/3
f 205/8/3 202/8/3 204/8/3
f 208/8/3 203/8/3 201/8/3
f 209/8/3 203/8/3 208/8/3
f 211/8/3 205/8/3 204/8/3
f 211/8/3 206/8/3 205/8/3
f 212/8/3 206/8/3 211/8/3
f 214/8/3 208/8/3 207/8/3
f 215/8/3 208/8/3 214/8/3
f 217/8/3 213/8/3 212/8/3
f 217/8/3 212/8/3 211/8/3
f 217/8/3 211/8/3 210/8/3
f 218/8/3 213/8/3 217/8/3
f 219/8/3 213/8/3 218/8/3
f 220/8/3 213/8/3 219/8/3
f 221/8/3 216/8/3 215/8/3
f 222/8/3 219/8/3 218/8/3
f 223/8/3 219/8/3 222/8/3
f 224/8/3 219/8/3 223/8/3
f 225/8/3 221/8/3 215/8/3
f 225/8/3 222/8/3 221/8/3
f 225/8/3 223/8/3 222/8/3
f 226/8/3 223/8/3 225/8/3
f 237/8/3 228/8/3 227/8/3
f 238/8/3 228/8/3 237/8/3
f 240/4/3 230/4/3 229/4/3
f 241/8/3 231/8/3 230/8/3
f 241/4/3 230/4/3 240/4/3
f 242/8/3 231/8/3 241/8/3
f 243/2/3 232/2/3 231/2/3
f 243/8/3 231/8/3 242/8/3
f 244/2/3 232/2/3 243/2/3
f 245/1/3 234/1/3 233/1/3
f 246/11/3 235/11/3 234/11/3
f 246/1/3 234/1/3 245/1/3
f 247/2/3 236/2/3 235/2/3
f 247/11/3 235/11/3 246/11/3
f 248/2/3 236/2/3 247/2/3
f 249/8/3 239/8/3 238/8/3
f 250/8/3 239/8/3 249/8/3
f 251/12/3 241/12/3 240/12/3
f 252/8/3 242/8/3 241/8/3
f 252/12/3 241/12/3 251/12/3
f 253/2/3 243/2/3 242/2/3
f 253/8/3 242/8/3 252/8/3
f 254/2/3 243/2/3 253/2/3
f 256/1/3 246/1/3 245/1/3
f 257/2/3 247/2/3 246/2/3
f 257/1/3 246/1/3 256/1/3
f 258/2/3 247/2/3 257/2/3
f 262/4/3 252/4/3 251/4/3
f 263/2/3 253/2/3 252/2/3
f 263/4/3 252/4/3 262/4/3
f 264/8/3 255/8/3 254/8/3
f 264/2/3 253/2/3 263/2/3
f 264/8/3 254/8/3 253/8/3
f 265/8/3 255/8/3 264/8/3
f 266/1/3 257/1/3 256/1/3
f 267/11/3 258/11/3 257/11/3
f 267/1/3 257/1/3 266/1/3
f 268/2/3 259/2/3 258/2/3
f 268/11/3 258/11/3 267/11/3
f 269/2/3 259/2/3 268/2/3
f 271/8/3 261/8/3 260/8/3
f 272/8/3 261/8/3 271/8/3
f 273/8/3 271/8/3 270/8/3
f 274/8/3 271/8/3 273/8/3
f 277/1/3 276/1/3 275/1/3
f 278/1/3 276/1/3 277/1/3
f 284/8/3 278/8/3 277/8/3
f 285/8/3 278/8/3 284/8/3
f 286/8/3 280/8/3 279/8/3
f 287/8/3 280/8/3 286/8/3
f 288/5/3 282/5/3 281/5/3
f 289/13/3 283/13/3 282/13/3
f 289/5/3 282/5/3 288/5/3
f 290/13/3 283/13/3 289/13/3
f 296/2/3 292/2/3 291/2/3
f 297/2/3 292/2/3 296/2/3
f 298/5/3 294/5/3 293/5/3
f 299/13/3 295/13/3 294/13/3
f 299/5/3 294/5/3 298/5/3
f 300/13/3 295/13/3 299/13/3
f 305/8/3 304/8/3 303/8/3
f 306/8/3 304/8/3 305/8/3
f 307/8/3 302/8/3 301/8/3
f 308/8/3 302/8/3 307/8/3
f 309/1/3 308/1/3 307/1/3
f 310/1/3 308/1/3 309/1/3
f 313/8/3 312/8/3 311/8/3
f 314/8/3 312/8/3 313/8/3
f 317/7/3 316/7/3 315/7/3
f 318/7/3 316/7/3 317/7/3
f 319/8/4 320/8/4 321/8/4
f 321/8/4 320/8/4 322/8/4
f 323/8/4 324/8/4 325/8/4
f 325/8/4 324/8/4 326/8/4
f 327/1/4 328/1/4 329/1/4
f 329/1/4 328/1/4 330/1/4
f 329/8/4 330/8/4 334/8/4
f 334/8/4 330/8/4 335/8/4
f 331/5/4 332/5/4 336/5/4
f 332/13/4 333/13/4 337/13/4
f 336/5/4 332/5/4 337/5/4
f 337/13/4 333/13/4 338/13/4
f 339/5/4 340/5/4 342/5/4
f 340/13/4 341/13/4 343/13/4
f 342/5/4 340/5/4 343/5/4
f 343/13/4 341/13/4 344/13/4
f 345/8/4 346/8/4 347/8/4
f 347/8/4 346/8/4 348/8/4
f 347/1/4 348/1/4 349/1/4
f 349/1/4 348/1/4 350/1/4
f 351/8/4 352/8/4 356/8/4
f 356/8/4 352/8/4 357/8/4
f 354/8/4 355/8/4 358/8/4
f 353/4/4 354/4/4 358/4/4
f 358/8/4 355/8/4 359/8/4
f 353/4/4 358/4/4 362/4/4
f 360/8/4 361/8/4 364/8/4
f 353/4/4 362/4/4 365/4/4
f 362/2/4 363/2/4 366/2/4
f 365/4/4 362/4/4 366/4/4
f 363/8/4 364/8/4 367/8/4
f 366/2/4 363/2/4 367/2/4
f 364/8/4 361/8/4 368/8/4
f 367/8/4 364/8/4 368/8/4
f 369/8/4 370/8/4 371/8/4
f 371/8/4 370/8/4 372/8/4
f 373/7/4 374/7/4 378/7/4
f 374/8/4 375/8/4 379/8/4
f 378/7/4 374/7/4 379/7/4
f 379/8/4 375/8/4 380/8/4
f 376/2/4 377/2/4 383/2/4
f 377/3/4 378/3/4 384/3/4
f 383/2/4 377/2/4 384/2/4
f 378/8/4 379/8/4 385/8/4
f 384/3/4 378/3/4 385/3/4
f 380/8/4 381/8/4 386/8/4
f 386/8/4 381/8/4 387/8/4
f 382/2/4 383/2/4 389/2/4
f 383/2/4 384/2/4 389/2/4
f 384/2/4 385/2/4 389/2/4
f 385/8/4 379/8/4 390/8/4
f 389/2/4 385/2/4 390/2/4
f 382/2/4 389/2/4 391/2/4
f 391/2/4 389/2/4 392/2/4
f 387/8/4 388/8/4 394/8/4
f 394/8/4 388/8/4 395/8/4
f 390/8/4 379/8/4 396/8/4
f 396/8/4 379/8/4 397/8/4
f 393/8/4 394/8/4 398/8/4
f 398/8/4 394/8/4 399/8/4
f 397/8/4 398/8/4 400/8/4
f 400/8/4 398/8/4 401/8/4
f 402/8/4 403/8/4 404/8/4
f 404/8/4 403/8/4 405/8/4
f 402/8/4 404/8/4 407/8/4
f 405/8/4 406/8/4 408/8/4
f 408/8/4 406/8/4 409/8/4
f 402/8/4 407/8/4 410/8/4
f 407/8/4 408/8/4 410/8/4
f 410/8/4 408/8/4 411/8/4
f 412/8/4 413/8/4 414/8/4
f 414/8/4 413/8/4 415/8/4
f 420/5/5 417/5/5 416/5/5
f 421/5/5 417/5/5 420/5/5
f 422/5/5 419/5/5 418/5/5
f 423/5/5 419/5/5 422/5/5
f 428/4/5 425/4/5 424/4/5
f 429/12/5 426/12/5 425/12/5
f 429/4/5 425/4/5 428/4/5
f 430/4/5 427/4/5 426/4/5
f 430/12/5 426/12/5 429/12/5
f 431/4/5 427/4/5 430/4/5
f 433/11/5 430/11/5 429/11/5
f 434/11/5 430/11/5 433/11/5
f 436/4/5 433/4/5 432/4/5
f 436/4/5 435/4/5 434/4/5
f 436/4/5 434/4/5 433/4/5
f 437/4/5 435/4/5 436/4/5
f 440/2/5 439/2/5 438/2/5
f 441/2/5 439/2/5 440/2/5
f 444/2/5 443/2/5 442/2/5
f 445/2/5 443/2/5 444/2/5
f 448/8/5 447/8/5 446/8/5
f 449/8/5 447/8/5 448/8/5
f 456/1/5 451/1/5 450/1/5
f 457/8/5 452/8/5 451/8/5
f 457/1/5 451/1/5 456/1/5
f 458/8/5 452/8/5 457/8/5
f 459/8/5 454/8/5 453/8/5
f 460/1/5 455/1/5 454/1/5
f 460/8/5 454/8/5 459/8/5
f 461/1/5 455/1/5 460/1/5
f 466/8/5 463/8/5 462/8/5
f 467/8/5 463/8/5 466/8/5
f 468/8/5 463/8/5 467/8/5
f 469/8/5 465/8/5 464/8/5
f 470/8/5 465/8/5 469/8/5
f 471/8/5 465/8/5 470/8/5
f 476/7/5 473/7/5 472/7/5
f 477/7/5 473/7/5 476/7/5
f 478/8/5 475/8/5 474/8/5
f 479/8/5 475/8/5 478/8/5
f 486/8/5 481/8/5 480/8/5
f 487/1/5 483/1/5 482/1/5
f 488/1/5 483/1/5 487/1/5
f 489/8/5 486/8/5 480/8/5
f 490/8/5 489/8/5 480/8/5
f 491/8/5 489/8/5 490/8/5
f 493/8/5 485/8/5 484/8/5
f 494/8/5 485/8/5 493/8/5
f 495/8/5 493/8/5 492/8/5
f 496/8/5 493/8/5 495/8/5
f 499/8/5 498/8/5 497/8/5
f 500/8/5 498/8/5 499/8/5
f 505/8/5 502/8/5 501/8/5
f 506/8/5 502/8/5 505/8/5
f 507/8/5 504/8/5 503/8/5
f 508/8/5 504/8/5 507/8/5
f 511/8/5 510/8/5 509/8/5
f 512/8/5 510/8/5 511/8/5
f 513/2/6 514/2/6 515/2/6
f 515/2/6 514/2/6 516/2/6
f 517/8/6 518/8/6 522/8/6
f 522/8/6 518/8/6 523/8/6
f 519/1/6 520/1/6 527/1/6
f 520/8/6 521/8/6 528/8/6
f 527/1/6 520/1/6 528/1/6
f 528/8/6 521/8/6 529/8/6
f 524/8/6 525/8/6 530/8/6
f 525/1/6 526/1/6 531/1/6
f 530/8/6 525/8/6 531/8/6
f 531/1/6 526/1/6 532/1/6
f 533/8/6 534/8/6 537/8/6
f 537/8/6 534/8/6 538/8/6
f 535/8/6 536/8/6 539/8/6
f 539/8/6 536/8/6 540/8/6
f 541/8/6 542/8/6 545/8/6
f 545/8/6 542/8/6 546/8/6
f 543/8/6 544/8/6 547/8/6
f 547/8/6 544/8/6 548/8/6
f 549/8/6 550/8/6 554/8/6
f 554/8/6 550/8/6 555/8/6
f 551/8/6 552/8/6 556/8/6
f 556/8/6 552/8/6 557/8/6
f 553/8/6 554/8/6 559/8/6
f 559/8/6 554/8/6 560/8/6
f 557/8/6 558/8/6 561/8/6
f 561/8/6 558/8/6 562/8/6
f 563/8/6 564/8/6 567/8/6
f 567/8/6 564/8/6 568/8/6
f 565/8/6 566/8/6 571/8/6
f 571/8/6 566/8/6 572/8/6
f 568/8/6 569/8/6 573/8/6
f 573/8/6 569/8/6 574/8/6
f 570/8/6 571/8/6 575/8/6
f 575/8/6 571/8/6 576/8/6
f 574/8/6 575/8/6 577/8/6
f 577/8/6 575/8/6 578/8/6
f 579/8/6 580/8/6 582/8/6
f 582/8/6 580/8/6 583/8/6
f 581/8/6 582/8/6 586/8/6
f 583/8/6 584/8/6 586/8/6
f 582/8/6 583/8/6 586/8/6
f 586/8/6 584/8/6 587/8/6
f 585/8/6 586/8/6 589/8/6
f 587/8/6 588/8/6 589/8/6
f 586/8/6 587/8/6 589/8/6
f 589/8/6 588/8/6 590/8/6
f 585/8/6 589/8/6 591/8/6
f 591/8/6 589/8/6 592/8/6
f 590/8/6 588/8/6 593/8/6
f 593/8/6 588/8/6 594/8/6
f 592/8/6 589/8/6 595/8/6
f 595/8/6 589/8/6 596/8/6
f 590/8/6 593/8/6 597/8/6
f 597/8/6 593/8/6 598/8/6
f 596/8/6 597/8/6 599/8/6
f 599/8/6 597/8/6 600/8/6
f 601/8/6 602/8/6 603/8/6
f 603/8/6 602/8/6 604/8/6
